<svg width="33" height="31" viewBox="0 0 33 31" fill="none" xmlns="http://www.w3.org/2000/svg">
<path d="M11.3301 31C12.5727 31 13.5801 29.9926 13.5801 28.75C13.5801 27.5074 12.5727 26.5 11.3301 26.5C10.0874 26.5 9.08008 27.5074 9.08008 28.75C9.08008 29.9926 10.0874 31 11.3301 31Z" fill="black"/>
<path d="M25 31C26.2426 31 27.25 29.9926 27.25 28.75C27.25 27.5074 26.2426 26.5 25 26.5C23.7574 26.5 22.75 27.5074 22.75 28.75C22.75 29.9926 23.7574 31 25 31Z" fill="black"/>
<path d="M20.5702 6C20.5247 5.66859 20.5013 5.33452 20.5002 5C20.5013 4.66548 20.5247 4.33141 20.5702 4H9.49023L10.1402 6H20.5702Z" fill="black"/>
<path d="M28 12.5H27.58L26.33 18H11.33L6.75999 3.52999C6.71056 3.37645 6.62472 3.23714 6.50979 3.12396C6.39487 3.01077 6.25427 2.92707 6.09999 2.87999L1.99999 1.61999C1.87392 1.58125 1.74145 1.56772 1.61016 1.58017C1.47886 1.59262 1.3513 1.63082 1.23476 1.69257C0.999404 1.81728 0.823227 2.03038 0.744988 2.28499C0.666749 2.53959 0.692858 2.81486 0.817569 3.05021C0.942281 3.28557 1.15538 3.46175 1.40999 3.53999L4.99999 4.63999L9.58999 19.14L7.94999 20.48L7.81999 20.61C7.41432 21.0775 7.18439 21.6718 7.16979 22.2906C7.15518 22.9094 7.35683 23.5139 7.73999 24C8.01255 24.3314 8.3589 24.5945 8.75133 24.7682C9.14376 24.9418 9.57138 25.0212 9.99999 25H26.69C26.9552 25 27.2096 24.8946 27.3971 24.7071C27.5846 24.5196 27.69 24.2652 27.69 24C27.69 23.7348 27.5846 23.4804 27.3971 23.2929C27.2096 23.1053 26.9552 23 26.69 23H9.83999C9.72484 22.9961 9.61264 22.9625 9.51425 22.9025C9.41585 22.8426 9.33458 22.7583 9.27828 22.6577C9.22199 22.5572 9.19257 22.4439 9.19286 22.3286C9.19316 22.2134 9.22317 22.1002 9.27999 22L11.69 20H27.13C27.3611 20.0056 27.5871 19.931 27.7695 19.7888C27.9518 19.6466 28.0792 19.4456 28.13 19.22L29.7 12.31C29.1424 12.4379 28.572 12.5016 28 12.5Z" fill="black"/>
<path d="M28 10C30.7614 10 33 7.76142 33 5C33 2.23858 30.7614 0 28 0C25.2386 0 23 2.23858 23 5C23 7.76142 25.2386 10 28 10Z" fill="black"/>
</svg>
